PathFileType	4	(X/Y/Z)	27_1_24_p0_0-284_filt_butterworth.trc
DataRate	CameraRate	NumFrames	NumMarkers	Units	OrigDataRate	OrigDataStartFrame	OrigNumFrames
60.0	60.0	7	27	m	60.0	35	284
Frame#	Time	RHip			RKnee			RAnkle			RBigToe			RSmallToe			RHeel			LHip			LKnee			LAnkle			LBigToe			LSmallToe			LHeel			Neck			Head			Nose			RShoulder			RElbow			RWrist			RThumb			RIndex			RPinky			LShoulder			LElbow			LWrist			LThumb			LIndex			LPinky			
		X1	Y1	Z1	X2	Y2	Z2	X3	Y3	Z3	X4	Y4	Z4	X5	Y5	Z5	X6	Y6	Z6	X7	Y7	Z7	X8	Y8	Z8	X9	Y9	Z9	X10	Y10	Z10	X11	Y11	Z11	X12	Y12	Z12	X13	Y13	Z13	X14	Y14	Z14	X15	Y15	Z15	X16	Y16	Z16	X17	Y17	Z17	X18	Y18	Z18	X19	Y19	Z19	X20	Y20	Z20	X21	Y21	Z21	X22	Y22	Z22	X23	Y23	Z23	X24	Y24	Z24	X25	Y25	Z25	X26	Y26	Z26	X27	Y27	Z27	
35	0.5833333333333334	0.1538701676238378	0.6107236839350141	0.8653759686744856	0.17686455357063957	0.719412828853919	1.3498914503481705	0.18639159901676278	0.8102332257562368	1.8149195630251913	0.1305714992037755	0.5859101961586806	1.8371100771589677	0.197905026298759	0.5955969919337817	1.825651828631166	0.15970520011087014	0.9060853690620478	1.8827769202899192	-0.08316064387603175	0.6580535736100142	0.893194341392055	-0.053930053615566055	0.7442833579016584	1.3644558335091637	-0.0479528145203647	0.7907874109115535	1.813542657930751	-0.0445450582683298	0.5658317839394977	1.822223471867572	-0.10776129459197913	0.6470561392621084	1.848106046613978	-0.03189682120224166	0.8689137015906163	1.8767621434968904	0.009194396254590717	0.5648434089935418	0.31461859758799093	0.010268046651806237	0.48872872080670304	0.0777594017329093	-6.237815096728997e-05	0.42660307646489326	0.19917995114897616	0.1748574573559522	0.5541493966126467	0.39404326794801425	0.20104712869749508	0.5107174030207764	0.6446916343886911	0.08007100686704084	0.3078590986500429	0.7613769972603814	0.006631643703339189	0.2796217647036225	0.8024487794788657	0.0128928038576989	0.22636347751981079	0.8023431236939016	0.02967325663104587	0.22965814484761363	0.8216831781422407	-0.15613276133916962	0.556278085110989	0.4178719996502698	-0.2080446459334138	0.6398953973466872	0.690401429115396	-0.11413404751009415	0.46646209629598434	0.83941420677522	-0.04769077410346147	0.3802778786407886	0.8594155015181568	-0.03918371284628156	0.36595374141905995	0.873774858468238	-0.050205967758118995	0.3769583785230076	0.9059080126046212
36	0.6	0.15175198521105254	0.618142617696793	0.8681266372987445	0.17708036335313623	0.7193357576111793	1.3484701615476673	0.18691185881358957	0.8105545697299877	1.816219728112058	0.13106797675062576	0.5800829565451022	1.8338941732144558	0.19781976740435336	0.5957134143668549	1.825786813226944	0.16033641811280072	0.9065031306472434	1.8848939921341161	-0.0842225093616567	0.6536366447100495	0.8937644072595573	-0.05383976516663554	0.7440256436563679	1.3642755055734608	-0.04793376299296353	0.7907506811756171	1.8135285040815838	-0.044676245631603474	0.565826951990687	1.8236597823673932	-0.10784214643109143	0.6470779057789156	1.8484700457299703	-0.03173876605688533	0.8688004025267845	1.8765940288167373	0.01000339145577186	0.5616759504106164	0.31470413943256764	0.010353318151349222	0.4887138095383584	0.07768778903096497	0.0022193095186544025	0.4264749764251765	0.19918945265900675	0.17469191514836327	0.5539883424537019	0.392183852374236	0.2019263193629945	0.5046725494007259	0.6461801467689723	0.07666626201822833	0.29569507715862464	0.729127879886355	-0.003738387957580204	0.2793251473445373	0.746042343094535	0.0008551206450842451	0.22501727393265025	0.7493171411066164	0.02158835654931015	0.22472164557242974	0.7766885168953211	-0.1563359839028578	0.5565586640944873	0.41793255438868654	-0.21159909120197992	0.6379079306881561	0.6928314465265697	-0.12161719847820529	0.46888238387133524	0.8381198629405343	-0.05511727896627045	0.3813088763514024	0.8519819196000644	-0.0502699849201176	0.36778246077968074	0.8704589762279202	-0.060260920095542576	0.37229022215713325	0.8994421575735202
37	0.6166666666666667	0.15087551822571596	0.6229459501281054	0.8680101504490969	0.17721797517485535	0.719177019552851	1.347367968012334	0.18787111882804225	0.8109085802279389	1.8165959227630244	0.13182307307171207	0.579097372628064	1.833582457287677	0.1977760764914028	0.5958878441544894	1.8259198025412073	0.16135791385968706	0.9068906110236508	1.8864544116883661	-0.08208782822211355	0.6470271183366423	0.8918220502268837	-0.05373927450480853	0.7436549501583914	1.3641196908730362	-0.04792627075927709	0.790701993645625	1.8135300213966818	-0.045735215594038474	0.5656411013638477	1.8241213024715845	-0.10813938939575155	0.647152576843124	1.8496225898914676	-0.030491924564185122	0.8672721402693324	1.8766939863460965	0.011129863996319708	0.557129012106455	0.3147457210235836	0.010495770269829171	0.4887299483760543	0.07768234659340159	0.0035698993105865873	0.4266015281824924	0.19920038080855923	0.1746982665752352	0.5539190668782362	0.39122757645699735	0.20269943367989499	0.49689562739518967	0.651077461318421	0.07146617170002945	0.28571646900155695	0.6965197421577239	-0.013124125250221155	0.2728963922311598	0.6821587201945845	-0.009464964096235626	0.22085424335048917	0.6922544796738987	0.011141739740709467	0.2294177818719792	0.7313212736103429	-0.15644221772335345	0.5567920030513862	0.4179743077396397	-0.2141311538193876	0.639022462536271	0.6934432285699447	-0.12816665128657695	0.4740793420191705	0.8411196110942414	-0.05981606946956379	0.3816368534399355	0.8491606768143786	-0.056692128466323655	0.3682701244050195	0.8723140950521177	-0.06732250508813785	0.3705924905243765	0.8982343344970849
38	0.6333333333333333	0.15108469276395087	0.6245131807210683	0.8654258592881072	0.17731130532216624	0.7189991574769915	1.34688683296106	0.1887510650525342	0.8109869618515433	1.8168912773340886	0.1328860219402041	0.581117089026002	1.8361987764115748	0.19777479932547432	0.5959304642034325	1.825977354718968	0.16227116743171202	0.907054993319886	1.8870455324814437	-0.07837263460040947	0.6406448407792275	0.8856858344108509	-0.05365710245424895	0.7432583758190106	1.364032205514833	-0.04791773028434304	0.790663624451391	1.8135337588108673	-0.04729745602000102	0.565486402546117	1.8239587686858245	-0.10851553228866355	0.647256987749818	1.851130290073823	-0.028047296827548134	0.8631271727476522	1.8760677916458657	0.011955490822506628	0.5536735392810003	0.3147322691331646	0.010631287208763038	0.4886563242494525	0.07799752769752766	0.003955424886919621	0.42686335273031145	0.19916244055517607	0.17485023987733428	0.5538683787853421	0.39103078882116404	0.20203431006912786	0.4886264097221442	0.6574001500346495	0.06469059445894658	0.2796793160767347	0.6633922414463925	-0.020303586355689737	0.2630370286289073	0.61863317037897	-0.016941259609639076	0.21624786712118976	0.6358434753609201	-0.0009481376862218384	0.23487574950134765	0.6858136439305684	-0.15586533218956358	0.5568996104245196	0.41793366782147123	-0.21482834820693475	0.6454801480914367	0.6911902342802654	-0.1331900430560372	0.4801539467944657	0.8462128717090076	-0.06116825678115147	0.38155377523412837	0.8525892016969299	-0.05866710432873194	0.368757164011158	0.8784158687626998	-0.07134694751877525	0.3747646893536009	0.9032839687123988
39	0.65	0.15179978504515237	0.6226135018231127	0.861170650787379	0.1773347999603009	0.7187963560245351	1.3467621330000987	0.1892639198412901	0.810775054485219	1.8172765557131565	0.1339842975741002	0.5845213059711427	1.8404706036815075	0.1977827351994449	0.5958265409778958	1.8259756860050542	0.16273931736880162	0.9069992020084435	1.8870594091682227	-0.07520348121098624	0.6364636328205503	0.8760223348735269	-0.053606325943050245	0.7429601730613871	1.3640060154451012	-0.047903296317909246	0.7906509490101012	1.8135276169352657	-0.04852072550575601	0.5654414294779561	1.8237342777606966	-0.10879116858650939	0.6473523988360839	1.8522722188376277	-0.02542354058021299	0.8571268445510286	1.8736133434812934	0.012160079269474535	0.5523401482775712	0.31466408358662296	0.010586759069462576	0.48829781683490575	0.07884943112751416	0.003939130377035028	0.4268546097281734	0.19907028078177	0.17472274893519432	0.5537324029627826	0.3915908382608908	0.19939666411884713	0.47846330003072707	0.6599290035472266	0.05770590088638884	0.27902618041755006	0.6298825059224	-0.02560643433387093	0.2569322781895262	0.5648650397660653	-0.0217890861564445	0.21822271700019003	0.5853806000546966	-0.010477474531538846	0.23801142339593181	0.6409145006242881	-0.15397088000375864	0.5568832060041703	0.4177923719209192	-0.21429949960822897	0.655131716678481	0.6875191026155065	-0.13660411657708735	0.4859472865133029	0.8511097722176566	-0.05866403662701944	0.38237590936896604	0.8612939617058921	-0.05785539108651395	0.3711549238974428	0.8892847899568725	-0.07425680573081189	0.38640751373881943	0.914890702820477
40	0.6666666666666666	0.152966723865793	0.6166099070004114	0.8558642312705187	0.17731288969317296	0.7185679850422189	1.3466780024615232	0.1895096659403878	0.8103644785377544	1.8174261668793112	0.13462052720110063	0.5888030823827816	1.844169735025847	0.1977464089193692	0.5956912803595136	1.8259824136006388	0.16273390112288633	0.9068341851496965	1.8869842253789633	-0.07308522819832984	0.6342324577932921	0.8653091965873853	-0.053603960932594175	0.742852093453441	1.3640023064969657	-0.047892800387422524	0.7906584716828582	1.8135095868765077	-0.049029896112097196	0.5654784994485558	1.823701418468551	-0.1088984504819252	0.6473982451469231	1.8527359392488032	-0.023788327990635984	0.8525615645081357	1.870812889347037	0.011809140577494574	0.552356650430356	0.31452957411195404	0.010163312158123614	0.4876272436222572	0.08001533495282781	0.004238016812609069	0.42573457033631207	0.19903008144254652	0.173398978056486	0.5535262469555414	0.39263402533892505	0.19498077311020812	0.4666070732538303	0.6545351071447127	0.05184909187824638	0.2843184126606645	0.5974925073080132	-0.029583807463918102	0.25712096451013344	0.5232688418273601	-0.024900981832639724	0.22843517729439708	0.5410949353094152	-0.01604211584025631	0.24120309378725333	0.5973299829163355	-0.15099299467094351	0.5567320819451241	0.417646329892436	-0.21381390100317982	0.6627016032321813	0.6845019898838629	-0.13817975951813355	0.49257748392440515	0.855439898077522	-0.053732580978829596	0.38535389303884615	0.8721762725871449	-0.055777606274511275	0.3764447757659505	0.9042970042855469	-0.07733421974866912	0.40205454627968323	0.9305666347213724
41	0.6833333333333333	0.15469142531273194	0.6071698023865439	0.8503288092549302	0.17728779604676123	0.7183485816077788	1.3465571921655295	0.18951864781652789	0.8098826659996651	1.817288033244362	0.13457345800434026	0.5939772228165875	1.845913055225497	0.1976181099358924	0.5955948705559668	1.8260352027003088	0.16222149911991962	0.9066440393325215	1.8868642177774655	-0.07123971873636707	0.6323171290784403	0.8560092860835499	-0.053653673968146284	0.7429301781240938	1.363985083116156	-0.047897691012515585	0.7906753747846516	1.8134988313804188	-0.04908610491623533	0.5655393369388568	1.8238212984666073	-0.10890115636195896	0.647363091144405	1.8527485953881366	-0.02324072297682972	0.852668485420865	1.8707562227718957	0.011249371661994526	0.5524008662355328	0.3143857209041853	0.009573575932214078	0.4871659199006592	0.0808876332687325	0.00538921172002981	0.4228940945176598	0.1993043931025582	0.17056068014585246	0.553337635966656	0.39371124303041766	0.18943154918222996	0.4558586111777163	0.6436261828037754	0.047297596271391545	0.29442813499113235	0.5681691315810634	-0.032126064559773695	0.26121168234276876	0.48969086744554396	-0.026830762912501898	0.24240428127953068	0.5000731339134484	-0.020331984409864348	0.24851372057116733	0.5554206491502636	-0.14836611648169276	0.5565053548161868	0.41765358176121314	-0.2136611543899542	0.6657588174742886	0.6829085848521412	-0.13818858841400442	0.5009927943319806	0.86014707925493	-0.04930633871557933	0.3899334722687886	0.8824560395720421	-0.05355133956001919	0.38306929537816564	0.9197696132830613	-0.07991001066747956	0.4156416526837463	0.9455438005421848
